<?xml version="1.0" encoding="UTF-8" standalone="no"?>
<!-- Created with Inkscape (http://www.inkscape.org/) -->

<svg
   xmlns:dc="http://purl.org/dc/elements/1.1/"
   xmlns:cc="http://creativecommons.org/ns#"
   xmlns:rdf="http://www.w3.org/1999/02/22-rdf-syntax-ns#"
   xmlns:svg="http://www.w3.org/2000/svg"
   xmlns="http://www.w3.org/2000/svg"
   xmlns:sodipodi="http://sodipodi.sourceforge.net/DTD/sodipodi-0.dtd"
   xmlns:inkscape="http://www.inkscape.org/namespaces/inkscape"
   width="210mm"
   height="297mm"
   viewBox="0 0 744.09448819 1052.3622047"
   id="svg2"
   version="1.1"
   inkscape:version="0.91 r13725"
   sodipodi:docname="logo.svg">
  <defs
     id="defs4">
    <inkscape:perspective
       sodipodi:type="inkscape:persp3d"
       inkscape:vp_x="-106.14413 : 765.15091 : 1"
       inkscape:vp_y="0 : 755.70049 : 0"
       inkscape:vp_z="535.97933 : 875.26726 : 1"
       inkscape:persp3d-origin="213.68004 : 742.72217 : 1"
       id="perspective4136" />
  </defs>
  <sodipodi:namedview
     id="base"
     pagecolor="#ffffff"
     bordercolor="#666666"
     borderopacity="1.0"
     inkscape:pageopacity="0.0"
     inkscape:pageshadow="2"
     inkscape:zoom="0.49497475"
     inkscape:cx="362.83035"
     inkscape:cy="548.85283"
     inkscape:document-units="px"
     inkscape:current-layer="layer1"
     showgrid="false"
     inkscape:object-nodes="true"
     inkscape:snap-page="true"
     inkscape:snap-grids="false"
     inkscape:window-width="1366"
     inkscape:window-height="744"
     inkscape:window-x="0"
     inkscape:window-y="24"
     inkscape:window-maximized="1" />
  <metadata
     id="metadata7">
    <rdf:RDF>
      <cc:Work
         rdf:about="">
        <dc:format>image/svg+xml</dc:format>
        <dc:type
           rdf:resource="http://purl.org/dc/dcmitype/StillImage" />
        <dc:title />
      </cc:Work>
    </rdf:RDF>
  </metadata>
  <g
     inkscape:label="Capa 1"
     inkscape:groupmode="layer"
     id="layer1">
    <g
       transform="matrix(3.7901411,-0.53598655,0.21591697,4.0764357,-1036.8479,-1421.073)"
       style="font-style:normal;font-weight:normal;font-size:40px;line-height:125%;font-family:sans-serif;letter-spacing:0px;word-spacing:0px;fill:#f30000;fill-opacity:1;stroke:none;stroke-width:1px;stroke-linecap:butt;stroke-linejoin:miter;stroke-opacity:1"
       id="flowRoot4152" />
    <flowRoot
       xml:space="preserve"
       id="flowRoot4160"
       style="font-style:normal;font-weight:normal;font-size:40px;line-height:125%;font-family:sans-serif;letter-spacing:0px;word-spacing:0px;fill:#000000;fill-opacity:1;stroke:none;stroke-width:1px;stroke-linecap:butt;stroke-linejoin:miter;stroke-opacity:1"
       transform="matrix(3.9146857,0,0,4.856171,-1694.8222,-2109.2233)"><flowRegion
         id="flowRegion4162"><rect
           id="rect4164"
           width="51.42857"
           height="137.14285"
           x="571.42859"
           y="529.50507" /></flowRegion><flowPara
         id="flowPara4166">CR</flowPara></flowRoot>    <g
       id="g4241"
       transform="matrix(0.62353301,0,0,0.75570049,20.695525,-193.06866)">
      <g
         transform="matrix(1.0632257,0,0,1,-45.647484,-6.5314964)"
         id="g4185">
        <g
           sodipodi:type="inkscape:box3d"
           id="g4138"
           style="fill:#333333;fill-opacity:1;stroke:#c20000;stroke-width:4;stroke-miterlimit:4;stroke-dasharray:none;stroke-opacity:1"
           inkscape:perspectiveID="#perspective4136"
           inkscape:corner0="0.94465345 : 0.25076792 : 0 : 1"
           inkscape:corner7="-0.28546643 : -0.074229337 : 0.89874016 : 1">
          <path
             sodipodi:type="inkscape:box3dside"
             id="path4148"
             style="fill:#afafde;fill-rule:evenodd;stroke:none;stroke-width:1px;stroke-linecap:butt;stroke-linejoin:round;stroke-opacity:1"
             inkscape:box3dsidetype="13"
             d="M 99.684367,695.50729 526.76408,787.49602 690.22594,625.30677 327.42013,632.56078 Z"
             points="526.76408,787.49602 690.22594,625.30677 327.42013,632.56078 99.684367,695.50729 " />
          <path
             sodipodi:type="inkscape:box3dside"
             id="path4140"
             style="fill:#353564;fill-rule:evenodd;stroke:none;stroke-width:1px;stroke-linecap:butt;stroke-linejoin:round;stroke-opacity:1"
             inkscape:box3dsidetype="6"
             d="m 99.684367,528.38381 0,167.12348 227.735763,-62.94651 0,-114.29907 z"
             points="99.684367,695.50729 327.42013,632.56078 327.42013,518.26171 99.684367,528.38381 " />
          <path
             sodipodi:type="inkscape:box3dside"
             id="path4150"
             style="fill:#e9e9ff;fill-rule:evenodd;stroke:none;stroke-width:1px;stroke-linecap:butt;stroke-linejoin:round;stroke-opacity:1"
             inkscape:box3dsidetype="11"
             d="m 327.42013,518.26171 362.80581,-94.40696 0,201.45202 -362.80581,7.25401 z"
             points="690.22594,423.85475 690.22594,625.30677 327.42013,632.56078 327.42013,518.26171 " />
          <path
             sodipodi:type="inkscape:box3dside"
             id="path4142"
             style="fill:#4d4d9f;fill-rule:evenodd;stroke:none;stroke-width:1px;stroke-linecap:butt;stroke-linejoin:round;stroke-opacity:1"
             inkscape:box3dsidetype="5"
             d="M 99.684367,528.38381 526.76408,332.6577 690.22594,423.85475 327.42013,518.26171 Z"
             points="526.76408,332.6577 690.22594,423.85475 327.42013,518.26171 99.684367,528.38381 " />
          <path
             sodipodi:type="inkscape:box3dside"
             id="path4146"
             style="fill:#d7d7ff;fill-rule:evenodd;stroke:none;stroke-width:1px;stroke-linecap:butt;stroke-linejoin:round;stroke-opacity:1"
             inkscape:box3dsidetype="14"
             d="m 526.76408,332.6577 0,454.83832 163.46186,-162.18925 0,-201.45202 z"
             points="526.76408,787.49602 690.22594,625.30677 690.22594,423.85475 526.76408,332.6577 " />
          <path
             sodipodi:type="inkscape:box3dside"
             id="path4144"
             style="fill:#8686bf;fill-rule:evenodd;stroke:none;stroke-width:1px;stroke-linecap:butt;stroke-linejoin:round;stroke-opacity:1"
             inkscape:box3dsidetype="3"
             d="M 99.684367,528.38381 526.76408,332.6577 l 0,454.83832 -427.079713,-91.98873 z"
             points="526.76408,332.6577 526.76408,787.49602 99.684367,695.50729 99.684367,528.38381 " />
        </g>
      </g>
      <path
         inkscape:transform-center-y="-13.625336"
         inkscape:transform-center-x="-22.250502"
         style="font-style:normal;font-weight:normal;font-size:40px;line-height:125%;font-family:sans-serif;letter-spacing:0px;word-spacing:0px;fill:#f30000;fill-opacity:1;stroke:none;stroke-width:1px;stroke-linecap:butt;stroke-linejoin:miter;stroke-opacity:1"
         inkscape:connector-curvature="0"
         id="path4177"
         d="m 278.48652,517.93113 3.93846,0.42928 -0.99584,18.6515 q -0.19366,3.62555 -2.28927,5.04488 -2.0762,1.42146 -6.5021,0.93906 l -1.5013,-0.16365 0.12196,-2.28274 1.22833,0.13381 q 2.61265,0.28475 3.73878,-0.60546 1.12612,-0.89022 1.26521,-3.49525 l 0.99585,-18.65149 z"
         transform="matrix(3.7901411,-0.53598655,0.21591697,4.0764357,-1036.8479,-1421.073)" />
      <path
         style="font-style:normal;font-weight:normal;font-size:40px;line-height:125%;font-family:sans-serif;letter-spacing:0px;word-spacing:0px;fill:#f30000;fill-opacity:1;stroke:none;stroke-width:1px;stroke-linecap:butt;stroke-linejoin:miter;stroke-opacity:1"
         inkscape:connector-curvature="0"
         id="path4179"
         d="m 311.98166,517.70998 -0.31224,4.70312 q -1.35671,-2.14987 -2.9891,-3.24709 -1.61774,-1.0967 -3.52437,-1.16331 -3.7546,-0.1312 -5.97937,3.2658 -2.22333,3.37488 -2.65726,9.9107 -0.43248,6.51376 1.33203,10.05007 1.76593,3.51424 5.52051,3.6454 1.90665,0.0667 3.66217,-0.91227 1.7702,-0.97836 3.40543,-3.02374 l -0.30929,4.65898 q -1.66018,1.53549 -3.45826,2.26943 -1.7834,0.73443 -3.71937,0.6668 -4.97191,-0.17368 -7.52838,-4.84425 -2.55504,-4.69265 -2.02875,-12.61954 0.52776,-7.94898 3.69113,-12.41973 3.16487,-4.49284 8.13678,-4.31916 1.9653,0.0687 3.64314,0.92401 1.694,0.83378 3.11522,2.45478 z"
         transform="matrix(3.7901411,-0.53598655,0.21591697,4.0764357,-1036.8479,-1421.073)" />
      <path
         style="font-style:normal;font-weight:normal;font-size:40px;line-height:125%;font-family:sans-serif;letter-spacing:0px;word-spacing:0px;fill:#f30000;fill-opacity:1;stroke:none;stroke-width:1px;stroke-linecap:butt;stroke-linejoin:miter;stroke-opacity:1"
         inkscape:connector-curvature="0"
         id="path4181"
         d="m 334.22043,534.89773 q 1.19171,0.75953 2.10926,2.91887 0.9372,2.16146 1.66325,5.84404 l 2.43431,11.9336 -4.26568,-0.4669 -2.25686,-11.19928 q -0.86809,-4.38442 -2.05251,-5.91525 -1.16475,-1.52865 -3.52366,-1.78684 l -4.32466,-0.47326 -2.46761,17.77405 -3.97084,-0.43451 5.83843,-42.0549 8.96387,0.98098 q 5.03233,0.55077 7.09078,3.83581 2.05843,3.28506 1.21375,9.36936 -0.55144,3.97169 -2.21247,6.44933 -1.64142,2.4798 -4.23941,3.22493 z m -7.49482,-18.74996 -2.0726,14.92904 4.993,0.54648 q 2.87003,0.31409 4.58667,-1.41393 1.74025,-1.75408 2.25254,-5.4441 0.51218,-3.69001 -0.70395,-5.71044 -1.19265,-2.04648 -4.06267,-2.36059 l -4.99301,-0.54648 z"
         transform="matrix(3.7901411,-0.53598655,0.21591697,4.0764357,-1036.8479,-1421.073)" />
      <path
         style="font-style:normal;font-weight:normal;font-size:40px;line-height:125%;font-family:sans-serif;letter-spacing:0px;word-spacing:0px;fill:#f30000;fill-opacity:1;stroke:none;stroke-width:1px;stroke-linecap:butt;stroke-linejoin:miter;stroke-opacity:1"
         inkscape:connector-curvature="0"
         id="path4183"
         d="m 368.68299,511.80004 -0.17859,6.9822 q -2.20994,-1.70876 -4.18981,-2.45232 -1.97987,-0.74355 -3.84665,-0.5448 -3.24233,0.3452 -5.06889,2.80182 -1.8069,2.45452 -1.91386,6.63674 -0.0897,3.50883 1.02342,5.19296 1.13369,1.64661 4.36756,2.39804 l 2.3747,0.63083 q 4.40202,1.05124 6.40582,4.69062 2.02435,3.60185 1.85938,10.05242 -0.19665,7.69105 -3.16719,11.96609 -2.95083,4.27292 -8.47261,4.8608 -2.08293,0.22176 -4.41924,-0.37781 -2.31664,-0.60167 -4.7893,-1.99969 l 0.18857,-7.37207 q 2.35446,2.18821 4.64149,3.18185 2.28703,0.9936 4.52717,0.75511 3.39953,-0.36193 5.30831,-2.96869 1.90877,-2.60675 2.02298,-7.07253 0.0997,-3.89868 -1.18031,-5.95386 -1.26039,-2.05729 -4.25845,-2.83382 l -2.39524,-0.5933 q -4.40023,-1.12209 -6.29789,-4.31329 -1.89768,-3.19117 -1.74268,-9.25189 0.17945,-7.01763 3.01422,-11.3489 2.85439,-4.33335 7.66875,-4.84592 2.0633,-0.21967 4.18796,0.2257 2.12469,0.44539 4.33039,1.55371 z"
         transform="matrix(3.7901411,-0.53598655,0.21591697,4.0764357,-1036.8479,-1421.073)" />
      <g
         id="flowRoot4168"
         style="font-style:normal;font-weight:normal;font-size:40px;line-height:125%;font-family:sans-serif;letter-spacing:0px;word-spacing:0px;fill:#0000eb;fill-opacity:1;stroke:none;stroke-width:1px;stroke-linecap:butt;stroke-linejoin:miter;stroke-opacity:1"
         transform="matrix(2.7447992,-0.08265932,0.16370934,5.4361595,-1023.3451,-2049.4719)">
        <path
           inkscape:connector-curvature="0"
           id="path4214"
           d="m 558.15205,468.818 -0.0431,4.88211 q -1.97329,-2.17221 -4.22977,-3.24351 -2.23694,-1.07134 -4.7764,-1.06464 -5.00079,0.0132 -7.6892,3.61875 -2.6882,3.58264 -2.74804,10.36716 -0.0596,6.76159 2.56529,10.35314 2.62513,3.56862 7.62592,3.55543 2.53946,-0.007 4.79541,-1.0899 2.27548,-1.08326 4.28718,-3.26598 l -0.0426,4.83626 q -2.08519,1.65575 -4.41706,2.48704 -2.31232,0.83122 -4.89085,0.83802 -6.62214,0.0175 -10.38949,-4.71706 -3.76714,-4.75745 -3.69457,-12.98597 0.0728,-8.25144 3.92382,-13.00608 3.85125,-4.77755 10.47338,-4.79502 2.6176,-0.007 4.91537,0.81215 2.3175,0.7961 4.33472,2.4181 z" />
        <path
           inkscape:connector-curvature="0"
           id="path4216"
           d="m 575.97056,496.50829 -11.31813,-26.05307 4.12069,0.007 9.39432,21.93462 9.09997,-21.90447 4.10118,0.007 -10.92581,26.01682 -4.47222,-0.007 z" />
      </g>
    </g>
  </g>
</svg>
